<?xml version="1.0" encoding="UTF-8" standalone="no"?><svg xmlns="http://www.w3.org/2000/svg" xmlns:xlink="http://www.w3.org/1999/xlink" clip-rule="evenodd" stroke-miterlimit="10" viewBox="0 0 1024 768"><desc>SVG generated by Keynote</desc><defs></defs><g transform="matrix(1.00, 0.00, -0.00, -1.00, 0.0, 768.0)"><path d="M 0.0 768.0 L 1024.0 768.0 L 1024.0 0.0 L 0.0 0.0 Z M 0.0 768.0 " fill="#FEFFFF"></path><text xml:space="preserve" font-family="Helvetica-Light,Helvetica" font-size="80.0" fill="#000000" transform="matrix(1.00, 0.00, -0.00, -1.00, 160.8, 618.4)">D</text><text xml:space="preserve" font-family="Helvetica-Light,Helvetica" font-size="80.0" fill="#000000" transform="matrix(1.00, 0.00, -0.00, -1.00, 218.5, 618.4)">e</text><text xml:space="preserve" font-family="Helvetica-Light,Helvetica" font-size="80.0" fill="#000000" transform="matrix(1.00, 0.00, -0.00, -1.00, 263.0, 618.4)">e</text><text xml:space="preserve" font-family="Helvetica-Light,Helvetica" font-size="80.0" fill="#000000" transform="matrix(1.00, 0.00, -0.00, -1.00, 307.5, 618.4)">p</text><text xml:space="preserve" font-family="Helvetica-Light,Helvetica" font-size="80.0" fill="#000000" transform="matrix(1.00, 0.00, -0.00, -1.00, 356.4, 618.4)">e</text><text xml:space="preserve" font-family="Helvetica-Light,Helvetica" font-size="80.0" fill="#000000" transform="matrix(1.00, 0.00, -0.00, -1.00, 400.8, 618.4)">r</text><text xml:space="preserve" font-family="Helvetica-Light,Helvetica" font-size="80.0" fill="#000000" transform="matrix(1.00, 0.00, -0.00, -1.00, 427.5, 618.4)"> </text><text xml:space="preserve" font-family="Helvetica-Light,Helvetica" font-size="80.0" fill="#000000" transform="matrix(1.00, 0.00, -0.00, -1.00, 449.7, 618.4)">e</text><text xml:space="preserve" font-family="Helvetica-Light,Helvetica" font-size="80.0" fill="#000000" transform="matrix(1.00, 0.00, -0.00, -1.00, 494.2, 618.4)">x</text><text xml:space="preserve" font-family="Helvetica-Light,Helvetica" font-size="80.0" fill="#000000" transform="matrix(1.00, 0.00, -0.00, -1.00, 534.2, 618.4)">p</text><text xml:space="preserve" font-family="Helvetica-Light,Helvetica" font-size="80.0" fill="#000000" transform="matrix(1.00, 0.00, -0.00, -1.00, 583.1, 618.4)">l</text><text xml:space="preserve" font-family="Helvetica-Light,Helvetica" font-size="80.0" fill="#000000" transform="matrix(1.00, 0.00, -0.00, -1.00, 600.8, 618.4)">a</text><text xml:space="preserve" font-family="Helvetica-Light,Helvetica" font-size="80.0" fill="#000000" transform="matrix(1.00, 0.00, -0.00, -1.00, 645.3, 618.4)">n</text><text xml:space="preserve" font-family="Helvetica-Light,Helvetica" font-size="80.0" fill="#000000" transform="matrix(1.00, 0.00, -0.00, -1.00, 689.8, 618.4)">a</text><text xml:space="preserve" font-family="Helvetica-Light,Helvetica" font-size="80.0" fill="#000000" transform="matrix(1.00, 0.00, -0.00, -1.00, 734.3, 618.4)">t</text><text xml:space="preserve" font-family="Helvetica-Light,Helvetica" font-size="80.0" fill="#000000" transform="matrix(1.00, 0.00, -0.00, -1.00, 756.5, 618.4)">i</text><text xml:space="preserve" font-family="Helvetica-Light,Helvetica" font-size="80.0" fill="#000000" transform="matrix(1.00, 0.00, -0.00, -1.00, 774.3, 618.4)">o</text><text xml:space="preserve" font-family="Helvetica-Light,Helvetica" font-size="80.0" fill="#000000" transform="matrix(1.00, 0.00, -0.00, -1.00, 818.8, 618.4)">n</text><text xml:space="preserve" font-family="Helvetica-Light,Helvetica" font-size="23.8" fill="#000000" transform="matrix(1.00, 0.00, -0.00, -1.00, 79.0, 510.0)">•</text><text xml:space="preserve" font-family="Helvetica-Light,Helvetica" font-size="31.7" fill="#000000" transform="matrix(1.00, 0.00, -0.00, -1.00, 109.8, 507.3)">J</text><text xml:space="preserve" font-family="Helvetica-Light,Helvetica" font-size="31.7" fill="#000000" transform="matrix(1.00, 0.00, -0.00, -1.00, 125.6, 507.3)">u</text><text xml:space="preserve" font-family="Helvetica-Light,Helvetica" font-size="31.7" fill="#000000" transform="matrix(1.00, 0.00, -0.00, -1.00, 143.3, 507.3)">s</text><text xml:space="preserve" font-family="Helvetica-Light,Helvetica" font-size="31.7" fill="#000000" transform="matrix(1.00, 0.00, -0.00, -1.00, 159.1, 507.3)">t</text><text xml:space="preserve" font-family="Helvetica-Light,Helvetica" font-size="31.7" fill="#000000" transform="matrix(1.00, 0.00, -0.00, -1.00, 167.9, 507.3)">i</text><text xml:space="preserve" font-family="Helvetica-Light,Helvetica" font-size="31.7" fill="#000000" transform="matrix(1.00, 0.00, -0.00, -1.00, 174.9, 507.3)">n</text><text xml:space="preserve" font-family="Helvetica-Light,Helvetica" font-size="31.7" fill="#000000" transform="matrix(1.00, 0.00, -0.00, -1.00, 192.5, 507.3)"> </text><text xml:space="preserve" font-family="Helvetica-Light,Helvetica" font-size="31.7" fill="#000000" transform="matrix(1.00, 0.00, -0.00, -1.00, 201.4, 507.3)">W</text><text xml:space="preserve" font-family="Helvetica-Light,Helvetica" font-size="31.7" fill="#000000" transform="matrix(1.00, 0.00, -0.00, -1.00, 228.9, 507.3)">e</text><text xml:space="preserve" font-family="Helvetica-Light,Helvetica" font-size="31.7" fill="#000000" transform="matrix(1.00, 0.00, -0.00, -1.00, 246.6, 507.3)">i</text><text xml:space="preserve" font-family="Helvetica-Light,Helvetica" font-size="31.7" fill="#000000" transform="matrix(1.00, 0.00, -0.00, -1.00, 253.6, 507.3)">s</text><text xml:space="preserve" font-family="Helvetica-Light,Helvetica" font-size="31.7" fill="#000000" transform="matrix(1.00, 0.00, -0.00, -1.00, 269.4, 507.3)">s</text><text xml:space="preserve" font-family="Helvetica-Light,Helvetica" font-size="31.7" fill="#000000" transform="matrix(1.00, 0.00, -0.00, -1.00, 285.3, 507.3)">,</text><text xml:space="preserve" font-family="Helvetica-Light,Helvetica" font-size="31.7" fill="#000000" transform="matrix(1.00, 0.00, -0.00, -1.00, 294.1, 507.3)"> </text><text xml:space="preserve" font-family="Helvetica-Light,Helvetica" font-size="31.7" fill="#000000" transform="matrix(1.00, 0.00, -0.00, -1.00, 302.9, 507.3)">p</text><text xml:space="preserve" font-family="Helvetica-Light,Helvetica" font-size="31.7" fill="#000000" transform="matrix(1.00, 0.00, -0.00, -1.00, 322.2, 507.3)">r</text><text xml:space="preserve" font-family="Helvetica-Light,Helvetica" font-size="31.7" fill="#000000" transform="matrix(1.00, 0.00, -0.00, -1.00, 332.2, 507.3)">o</text><text xml:space="preserve" font-family="Helvetica-Light,Helvetica" font-size="31.7" fill="#000000" transform="matrix(1.00, 0.00, -0.00, -1.00, 349.8, 507.3)">l</text><text xml:space="preserve" font-family="Helvetica-Light,Helvetica" font-size="31.7" fill="#000000" transform="matrix(1.00, 0.00, -0.00, -1.00, 356.9, 507.3)">i</text><text xml:space="preserve" font-family="Helvetica-Light,Helvetica" font-size="31.7" fill="#000000" transform="matrix(1.00, 0.00, -0.00, -1.00, 363.9, 507.3)">ﬁ</text><text xml:space="preserve" font-family="Helvetica-Light,Helvetica" font-size="31.7" fill="#000000" transform="matrix(1.00, 0.00, -0.00, -1.00, 379.7, 507.3)">c</text><text xml:space="preserve" font-family="Helvetica-Light,Helvetica" font-size="31.7" fill="#000000" transform="matrix(1.00, 0.00, -0.00, -1.00, 397.4, 507.3)"> </text><text xml:space="preserve" font-family="Helvetica-Light,Helvetica" font-size="31.7" fill="#000000" transform="matrix(1.00, 0.00, -0.00, -1.00, 406.2, 507.3)">b</text><text xml:space="preserve" font-family="Helvetica-Light,Helvetica" font-size="31.7" fill="#000000" transform="matrix(1.00, 0.00, -0.00, -1.00, 425.5, 507.3)">l</text><text xml:space="preserve" font-family="Helvetica-Light,Helvetica" font-size="31.7" fill="#000000" transform="matrix(1.00, 0.00, -0.00, -1.00, 432.6, 507.3)">o</text><text xml:space="preserve" font-family="Helvetica-Light,Helvetica" font-size="31.7" fill="#000000" transform="matrix(1.00, 0.00, -0.00, -1.00, 450.2, 507.3)">g</text><text xml:space="preserve" font-family="Helvetica-Light,Helvetica" font-size="31.7" fill="#000000" transform="matrix(1.00, 0.00, -0.00, -1.00, 469.5, 507.3)">g</text><text xml:space="preserve" font-family="Helvetica-Light,Helvetica" font-size="31.7" fill="#000000" transform="matrix(1.00, 0.00, -0.00, -1.00, 488.9, 507.3)">e</text><text xml:space="preserve" font-family="Helvetica-Light,Helvetica" font-size="31.7" fill="#000000" transform="matrix(1.00, 0.00, -0.00, -1.00, 506.5, 507.3)">r</text><text xml:space="preserve" font-family="Helvetica-Light,Helvetica" font-size="31.7" fill="#000000" transform="matrix(1.00, 0.00, -0.00, -1.00, 517.0, 507.3)"> </text><text xml:space="preserve" font-family="Helvetica-Light,Helvetica" font-size="31.7" fill="#000000" transform="matrix(1.00, 0.00, -0.00, -1.00, 525.9, 507.3)">a</text><text xml:space="preserve" font-family="Helvetica-Light,Helvetica" font-size="31.7" fill="#000000" transform="matrix(1.00, 0.00, -0.00, -1.00, 543.5, 507.3)">n</text><text xml:space="preserve" font-family="Helvetica-Light,Helvetica" font-size="31.7" fill="#000000" transform="matrix(1.00, 0.00, -0.00, -1.00, 561.1, 507.3)">d</text><text xml:space="preserve" font-family="Helvetica-Light,Helvetica" font-size="31.7" fill="#000000" transform="matrix(1.00, 0.00, -0.00, -1.00, 580.4, 507.3)"> </text><text xml:space="preserve" font-family="Helvetica-Light,Helvetica" font-size="31.7" fill="#000000" transform="matrix(1.00, 0.00, -0.00, -1.00, 589.2, 507.3)">R</text><text xml:space="preserve" font-family="Helvetica-Light,Helvetica" font-size="31.7" fill="#000000" transform="matrix(1.00, 0.00, -0.00, -1.00, 610.4, 507.3)">a</text><text xml:space="preserve" font-family="Helvetica-Light,Helvetica" font-size="31.7" fill="#000000" transform="matrix(1.00, 0.00, -0.00, -1.00, 628.0, 507.3)">i</text><text xml:space="preserve" font-family="Helvetica-Light,Helvetica" font-size="31.7" fill="#000000" transform="matrix(1.00, 0.00, -0.00, -1.00, 635.0, 507.3)">l</text><text xml:space="preserve" font-family="Helvetica-Light,Helvetica" font-size="31.7" fill="#000000" transform="matrix(1.00, 0.00, -0.00, -1.00, 642.1, 507.3)">s</text><text xml:space="preserve" font-family="Helvetica-Light,Helvetica" font-size="31.7" fill="#000000" transform="matrix(1.00, 0.00, -0.00, -1.00, 657.9, 507.3)"> </text><text xml:space="preserve" font-family="Helvetica-Light,Helvetica" font-size="31.7" fill="#000000" transform="matrix(1.00, 0.00, -0.00, -1.00, 666.7, 507.3)">e</text><text xml:space="preserve" font-family="Helvetica-Light,Helvetica" font-size="31.7" fill="#000000" transform="matrix(1.00, 0.00, -0.00, -1.00, 684.3, 507.3)">n</text><text xml:space="preserve" font-family="Helvetica-Light,Helvetica" font-size="31.7" fill="#000000" transform="matrix(1.00, 0.00, -0.00, -1.00, 701.9, 507.3)">t</text><text xml:space="preserve" font-family="Helvetica-Light,Helvetica" font-size="31.7" fill="#000000" transform="matrix(1.00, 0.00, -0.00, -1.00, 710.7, 507.3)">h</text><text xml:space="preserve" font-family="Helvetica-Light,Helvetica" font-size="31.7" fill="#000000" transform="matrix(1.00, 0.00, -0.00, -1.00, 728.4, 507.3)">u</text><text xml:space="preserve" font-family="Helvetica-Light,Helvetica" font-size="31.7" fill="#000000" transform="matrix(1.00, 0.00, -0.00, -1.00, 746.0, 507.3)">s</text><text xml:space="preserve" font-family="Helvetica-Light,Helvetica" font-size="31.7" fill="#000000" transform="matrix(1.00, 0.00, -0.00, -1.00, 761.8, 507.3)">i</text><text xml:space="preserve" font-family="Helvetica-Light,Helvetica" font-size="31.7" fill="#000000" transform="matrix(1.00, 0.00, -0.00, -1.00, 768.8, 507.3)">a</text><text xml:space="preserve" font-family="Helvetica-Light,Helvetica" font-size="31.7" fill="#000000" transform="matrix(1.00, 0.00, -0.00, -1.00, 786.5, 507.3)">s</text><text xml:space="preserve" font-family="Helvetica-Light,Helvetica" font-size="31.7" fill="#000000" transform="matrix(1.00, 0.00, -0.00, -1.00, 802.3, 507.3)">t</text><text xml:space="preserve" font-family="Helvetica-Light,Helvetica" font-size="31.7" fill="#000000" transform="matrix(1.00, 0.00, -0.00, -1.00, 811.1, 507.3)">,</text><text xml:space="preserve" font-family="Helvetica-Light,Helvetica" font-size="31.7" fill="#000000" transform="matrix(1.00, 0.00, -0.00, -1.00, 819.9, 507.3)"> </text><text xml:space="preserve" font-family="Helvetica-Light,Helvetica" font-size="31.7" fill="#000000" transform="matrix(1.00, 0.00, -0.00, -1.00, 828.7, 507.3)">w</text><text xml:space="preserve" font-family="Helvetica-Light,Helvetica" font-size="31.7" fill="#000000" transform="matrix(1.00, 0.00, -0.00, -1.00, 851.6, 507.3)">r</text><text xml:space="preserve" font-family="Helvetica-Light,Helvetica" font-size="31.7" fill="#000000" transform="matrix(1.00, 0.00, -0.00, -1.00, 861.6, 507.3)">o</text><text xml:space="preserve" font-family="Helvetica-Light,Helvetica" font-size="31.7" fill="#000000" transform="matrix(1.00, 0.00, -0.00, -1.00, 879.2, 507.3)">t</text><text xml:space="preserve" font-family="Helvetica-Light,Helvetica" font-size="31.7" fill="#000000" transform="matrix(1.00, 0.00, -0.00, -1.00, 888.0, 507.3)">e</text><text xml:space="preserve" font-family="Helvetica-Light,Helvetica" font-size="31.7" fill="#000000" transform="matrix(1.00, 0.00, -0.00, -1.00, 905.6, 507.3)"> </text><text xml:space="preserve" font-family="Helvetica-Light,Helvetica" font-size="31.7" fill="#000000" transform="matrix(1.00, 0.00, -0.00, -1.00, 914.4, 507.3)">"</text><text xml:space="preserve" font-family="Helvetica-Light,Helvetica" font-size="31.7" fill="#000000" transform="matrix(1.00, 0.00, -0.00, -1.00, 923.2, 507.3)">A</text><text xml:space="preserve" font-family="Helvetica-Light,Helvetica" font-size="31.7" fill="#000000" transform="matrix(1.00, 0.00, -0.00, -1.00, 944.3, 507.3)"> </text><text xml:space="preserve" font-family="Helvetica-Light,Helvetica" font-size="31.7" fill="#000000" transform="matrix(1.00, 0.00, -0.00, -1.00, 109.8, 470.3)">L</text><text xml:space="preserve" font-family="Helvetica-Light,Helvetica" font-size="31.7" fill="#000000" transform="matrix(1.00, 0.00, -0.00, -1.00, 127.4, 470.3)">i</text><text xml:space="preserve" font-family="Helvetica-Light,Helvetica" font-size="31.7" fill="#000000" transform="matrix(1.00, 0.00, -0.00, -1.00, 134.4, 470.3)">g</text><text xml:space="preserve" font-family="Helvetica-Light,Helvetica" font-size="31.7" fill="#000000" transform="matrix(1.00, 0.00, -0.00, -1.00, 153.8, 470.3)">h</text><text xml:space="preserve" font-family="Helvetica-Light,Helvetica" font-size="31.7" fill="#000000" transform="matrix(1.00, 0.00, -0.00, -1.00, 171.4, 470.3)">t</text><text xml:space="preserve" font-family="Helvetica-Light,Helvetica" font-size="31.7" fill="#000000" transform="matrix(1.00, 0.00, -0.00, -1.00, 180.2, 470.3)">w</text><text xml:space="preserve" font-family="Helvetica-Light,Helvetica" font-size="31.7" fill="#000000" transform="matrix(1.00, 0.00, -0.00, -1.00, 203.1, 470.3)">e</text><text xml:space="preserve" font-family="Helvetica-Light,Helvetica" font-size="31.7" fill="#000000" transform="matrix(1.00, 0.00, -0.00, -1.00, 220.7, 470.3)">i</text><text xml:space="preserve" font-family="Helvetica-Light,Helvetica" font-size="31.7" fill="#000000" transform="matrix(1.00, 0.00, -0.00, -1.00, 227.7, 470.3)">g</text><text xml:space="preserve" font-family="Helvetica-Light,Helvetica" font-size="31.7" fill="#000000" transform="matrix(1.00, 0.00, -0.00, -1.00, 247.1, 470.3)">h</text><text xml:space="preserve" font-family="Helvetica-Light,Helvetica" font-size="31.7" fill="#000000" transform="matrix(1.00, 0.00, -0.00, -1.00, 264.7, 470.3)">t</text><text xml:space="preserve" font-family="Helvetica-Light,Helvetica" font-size="31.7" fill="#000000" transform="matrix(1.00, 0.00, -0.00, -1.00, 273.5, 470.3)"> </text><text xml:space="preserve" font-family="Helvetica-Light,Helvetica" font-size="31.7" fill="#000000" transform="matrix(1.00, 0.00, -0.00, -1.00, 282.3, 470.3)">W</text><text xml:space="preserve" font-family="Helvetica-Light,Helvetica" font-size="31.7" fill="#000000" transform="matrix(1.00, 0.00, -0.00, -1.00, 309.3, 470.3)">a</text><text xml:space="preserve" font-family="Helvetica-Light,Helvetica" font-size="31.7" fill="#000000" transform="matrix(1.00, 0.00, -0.00, -1.00, 326.9, 470.3)">y</text><text xml:space="preserve" font-family="Helvetica-Light,Helvetica" font-size="31.7" fill="#000000" transform="matrix(1.00, 0.00, -0.00, -1.00, 342.8, 470.3)"> </text><text xml:space="preserve" font-family="Helvetica-Light,Helvetica" font-size="31.7" fill="#000000" transform="matrix(1.00, 0.00, -0.00, -1.00, 351.6, 470.3)">t</text><text xml:space="preserve" font-family="Helvetica-Light,Helvetica" font-size="31.7" fill="#000000" transform="matrix(1.00, 0.00, -0.00, -1.00, 360.4, 470.3)">o</text><text xml:space="preserve" font-family="Helvetica-Light,Helvetica" font-size="31.7" fill="#000000" transform="matrix(1.00, 0.00, -0.00, -1.00, 378.0, 470.3)"> </text><text xml:space="preserve" font-family="Helvetica-Light,Helvetica" font-size="31.7" fill="#000000" transform="matrix(1.00, 0.00, -0.00, -1.00, 386.8, 470.3)">H</text><text xml:space="preserve" font-family="Helvetica-Light,Helvetica" font-size="31.7" fill="#000000" transform="matrix(1.00, 0.00, -0.00, -1.00, 409.7, 470.3)">a</text><text xml:space="preserve" font-family="Helvetica-Light,Helvetica" font-size="31.7" fill="#000000" transform="matrix(1.00, 0.00, -0.00, -1.00, 427.3, 470.3)">n</text><text xml:space="preserve" font-family="Helvetica-Light,Helvetica" font-size="31.7" fill="#000000" transform="matrix(1.00, 0.00, -0.00, -1.00, 444.9, 470.3)">d</text><text xml:space="preserve" font-family="Helvetica-Light,Helvetica" font-size="31.7" fill="#000000" transform="matrix(1.00, 0.00, -0.00, -1.00, 464.3, 470.3)">l</text><text xml:space="preserve" font-family="Helvetica-Light,Helvetica" font-size="31.7" fill="#000000" transform="matrix(1.00, 0.00, -0.00, -1.00, 471.3, 470.3)">e</text><text xml:space="preserve" font-family="Helvetica-Light,Helvetica" font-size="31.7" fill="#000000" transform="matrix(1.00, 0.00, -0.00, -1.00, 488.9, 470.3)"> </text><text xml:space="preserve" font-family="Helvetica-Light,Helvetica" font-size="31.7" fill="#000000" transform="matrix(1.00, 0.00, -0.00, -1.00, 497.7, 470.3)">D</text><text xml:space="preserve" font-family="Helvetica-Light,Helvetica" font-size="31.7" fill="#000000" transform="matrix(1.00, 0.00, -0.00, -1.00, 520.6, 470.3)">i</text><text xml:space="preserve" font-family="Helvetica-Light,Helvetica" font-size="31.7" fill="#000000" transform="matrix(1.00, 0.00, -0.00, -1.00, 527.6, 470.3)">f</text><text xml:space="preserve" font-family="Helvetica-Light,Helvetica" font-size="31.7" fill="#000000" transform="matrix(1.00, 0.00, -0.00, -1.00, 535.9, 470.3)">f</text><text xml:space="preserve" font-family="Helvetica-Light,Helvetica" font-size="31.7" fill="#000000" transform="matrix(1.00, 0.00, -0.00, -1.00, 544.7, 470.3)">e</text><text xml:space="preserve" font-family="Helvetica-Light,Helvetica" font-size="31.7" fill="#000000" transform="matrix(1.00, 0.00, -0.00, -1.00, 562.3, 470.3)">r</text><text xml:space="preserve" font-family="Helvetica-Light,Helvetica" font-size="31.7" fill="#000000" transform="matrix(1.00, 0.00, -0.00, -1.00, 572.3, 470.3)">e</text><text xml:space="preserve" font-family="Helvetica-Light,Helvetica" font-size="31.7" fill="#000000" transform="matrix(1.00, 0.00, -0.00, -1.00, 589.9, 470.3)">n</text><text xml:space="preserve" font-family="Helvetica-Light,Helvetica" font-size="31.7" fill="#000000" transform="matrix(1.00, 0.00, -0.00, -1.00, 607.5, 470.3)">t</text><text xml:space="preserve" font-family="Helvetica-Light,Helvetica" font-size="31.7" fill="#000000" transform="matrix(1.00, 0.00, -0.00, -1.00, 616.3, 470.3)"> </text><text xml:space="preserve" font-family="Helvetica-Light,Helvetica" font-size="31.7" fill="#000000" transform="matrix(1.00, 0.00, -0.00, -1.00, 625.1, 470.3)">V</text><text xml:space="preserve" font-family="Helvetica-Light,Helvetica" font-size="31.7" fill="#000000" transform="matrix(1.00, 0.00, -0.00, -1.00, 642.7, 470.3)">a</text><text xml:space="preserve" font-family="Helvetica-Light,Helvetica" font-size="31.7" fill="#000000" transform="matrix(1.00, 0.00, -0.00, -1.00, 660.3, 470.3)">l</text><text xml:space="preserve" font-family="Helvetica-Light,Helvetica" font-size="31.7" fill="#000000" transform="matrix(1.00, 0.00, -0.00, -1.00, 667.4, 470.3)">i</text><text xml:space="preserve" font-family="Helvetica-Light,Helvetica" font-size="31.7" fill="#000000" transform="matrix(1.00, 0.00, -0.00, -1.00, 674.4, 470.3)">d</text><text xml:space="preserve" font-family="Helvetica-Light,Helvetica" font-size="31.7" fill="#000000" transform="matrix(1.00, 0.00, -0.00, -1.00, 693.8, 470.3)">a</text><text xml:space="preserve" font-family="Helvetica-Light,Helvetica" font-size="31.7" fill="#000000" transform="matrix(1.00, 0.00, -0.00, -1.00, 711.4, 470.3)">t</text><text xml:space="preserve" font-family="Helvetica-Light,Helvetica" font-size="31.7" fill="#000000" transform="matrix(1.00, 0.00, -0.00, -1.00, 720.2, 470.3)">i</text><text xml:space="preserve" font-family="Helvetica-Light,Helvetica" font-size="31.7" fill="#000000" transform="matrix(1.00, 0.00, -0.00, -1.00, 727.2, 470.3)">o</text><text xml:space="preserve" font-family="Helvetica-Light,Helvetica" font-size="31.7" fill="#000000" transform="matrix(1.00, 0.00, -0.00, -1.00, 744.8, 470.3)">n</text><text xml:space="preserve" font-family="Helvetica-Light,Helvetica" font-size="31.7" fill="#000000" transform="matrix(1.00, 0.00, -0.00, -1.00, 762.4, 470.3)"> </text><text xml:space="preserve" font-family="Helvetica-Light,Helvetica" font-size="31.7" fill="#000000" transform="matrix(1.00, 0.00, -0.00, -1.00, 771.2, 470.3)">C</text><text xml:space="preserve" font-family="Helvetica-Light,Helvetica" font-size="31.7" fill="#000000" transform="matrix(1.00, 0.00, -0.00, -1.00, 794.1, 470.3)">o</text><text xml:space="preserve" font-family="Helvetica-Light,Helvetica" font-size="31.7" fill="#000000" transform="matrix(1.00, 0.00, -0.00, -1.00, 811.7, 470.3)">n</text><text xml:space="preserve" font-family="Helvetica-Light,Helvetica" font-size="31.7" fill="#000000" transform="matrix(1.00, 0.00, -0.00, -1.00, 829.3, 470.3)">t</text><text xml:space="preserve" font-family="Helvetica-Light,Helvetica" font-size="31.7" fill="#000000" transform="matrix(1.00, 0.00, -0.00, -1.00, 838.2, 470.3)">e</text><text xml:space="preserve" font-family="Helvetica-Light,Helvetica" font-size="31.7" fill="#000000" transform="matrix(1.00, 0.00, -0.00, -1.00, 855.8, 470.3)">x</text><text xml:space="preserve" font-family="Helvetica-Light,Helvetica" font-size="31.7" fill="#000000" transform="matrix(1.00, 0.00, -0.00, -1.00, 871.6, 470.3)">t</text><text xml:space="preserve" font-family="Helvetica-Light,Helvetica" font-size="31.7" fill="#000000" transform="matrix(1.00, 0.00, -0.00, -1.00, 880.4, 470.3)">s</text><text xml:space="preserve" font-family="Helvetica-Light,Helvetica" font-size="31.7" fill="#000000" transform="matrix(1.00, 0.00, -0.00, -1.00, 896.3, 470.3)">"</text><text xml:space="preserve" font-family="Helvetica-Light,Helvetica" font-size="31.7" fill="#000000" transform="matrix(1.00, 0.00, -0.00, -1.00, 905.1, 470.3)">:</text><text xml:space="preserve" font-family="LucidaGrande,Lucida Grande" font-size="31.7" fill="#000000" transform="matrix(1.00, 0.00, -0.00, -1.00, 913.9, 470.3)"> </text><text xml:space="preserve" font-family="Helvetica-Light,Helvetica" font-size="31.7" fill="#000000" transform="matrix(1.00, 0.00, -0.00, -1.00, 109.8, 433.3)">h</text><text xml:space="preserve" font-family="Helvetica-Light,Helvetica" font-size="31.7" fill="#000000" transform="matrix(1.00, 0.00, -0.00, -1.00, 127.4, 433.3)">t</text><text xml:space="preserve" font-family="Helvetica-Light,Helvetica" font-size="31.7" fill="#000000" transform="matrix(1.00, 0.00, -0.00, -1.00, 136.2, 433.3)">t</text><text xml:space="preserve" font-family="Helvetica-Light,Helvetica" font-size="31.7" fill="#000000" transform="matrix(1.00, 0.00, -0.00, -1.00, 145.0, 433.3)">p</text><text xml:space="preserve" font-family="Helvetica-Light,Helvetica" font-size="31.7" fill="#000000" transform="matrix(1.00, 0.00, -0.00, -1.00, 164.4, 433.3)">:</text><text xml:space="preserve" font-family="Helvetica-Light,Helvetica" font-size="31.7" fill="#000000" transform="matrix(1.00, 0.00, -0.00, -1.00, 173.2, 433.3)">/</text><text xml:space="preserve" font-family="Helvetica-Light,Helvetica" font-size="31.7" fill="#000000" transform="matrix(1.00, 0.00, -0.00, -1.00, 182.0, 433.3)">/</text><text xml:space="preserve" font-family="Helvetica-Light,Helvetica" font-size="31.7" fill="#000000" transform="matrix(1.00, 0.00, -0.00, -1.00, 190.8, 433.3)">w</text><text xml:space="preserve" font-family="Helvetica-Light,Helvetica" font-size="31.7" fill="#000000" transform="matrix(1.00, 0.00, -0.00, -1.00, 213.7, 433.3)">w</text><text xml:space="preserve" font-family="Helvetica-Light,Helvetica" font-size="31.7" fill="#000000" transform="matrix(1.00, 0.00, -0.00, -1.00, 236.6, 433.3)">w</text><text xml:space="preserve" font-family="Helvetica-Light,Helvetica" font-size="31.7" fill="#000000" transform="matrix(1.00, 0.00, -0.00, -1.00, 257.7, 433.3)">.</text><text xml:space="preserve" font-family="Helvetica-Light,Helvetica" font-size="31.7" fill="#000000" transform="matrix(1.00, 0.00, -0.00, -1.00, 266.5, 433.3)">j</text><text xml:space="preserve" font-family="Helvetica-Light,Helvetica" font-size="31.7" fill="#000000" transform="matrix(1.00, 0.00, -0.00, -1.00, 273.5, 433.3)">u</text><text xml:space="preserve" font-family="Helvetica-Light,Helvetica" font-size="31.7" fill="#000000" transform="matrix(1.00, 0.00, -0.00, -1.00, 291.1, 433.3)">s</text><text xml:space="preserve" font-family="Helvetica-Light,Helvetica" font-size="31.7" fill="#000000" transform="matrix(1.00, 0.00, -0.00, -1.00, 307.0, 433.3)">t</text><text xml:space="preserve" font-family="Helvetica-Light,Helvetica" font-size="31.7" fill="#000000" transform="matrix(1.00, 0.00, -0.00, -1.00, 315.8, 433.3)">i</text><text xml:space="preserve" font-family="Helvetica-Light,Helvetica" font-size="31.7" fill="#000000" transform="matrix(1.00, 0.00, -0.00, -1.00, 322.8, 433.3)">n</text><text xml:space="preserve" font-family="Helvetica-Light,Helvetica" font-size="31.7" fill="#000000" transform="matrix(1.00, 0.00, -0.00, -1.00, 340.4, 433.3)">w</text><text xml:space="preserve" font-family="Helvetica-Light,Helvetica" font-size="31.7" fill="#000000" transform="matrix(1.00, 0.00, -0.00, -1.00, 363.3, 433.3)">e</text><text xml:space="preserve" font-family="Helvetica-Light,Helvetica" font-size="31.7" fill="#000000" transform="matrix(1.00, 0.00, -0.00, -1.00, 380.9, 433.3)">i</text><text xml:space="preserve" font-family="Helvetica-Light,Helvetica" font-size="31.7" fill="#000000" transform="matrix(1.00, 0.00, -0.00, -1.00, 388.0, 433.3)">s</text><text xml:space="preserve" font-family="Helvetica-Light,Helvetica" font-size="31.7" fill="#000000" transform="matrix(1.00, 0.00, -0.00, -1.00, 403.8, 433.3)">s</text><text xml:space="preserve" font-family="Helvetica-Light,Helvetica" font-size="31.7" fill="#000000" transform="matrix(1.00, 0.00, -0.00, -1.00, 419.6, 433.3)">.</text><text xml:space="preserve" font-family="Helvetica-Light,Helvetica" font-size="31.7" fill="#000000" transform="matrix(1.00, 0.00, -0.00, -1.00, 428.4, 433.3)">c</text><text xml:space="preserve" font-family="Helvetica-Light,Helvetica" font-size="31.7" fill="#000000" transform="matrix(1.00, 0.00, -0.00, -1.00, 446.1, 433.3)">o</text><text xml:space="preserve" font-family="Helvetica-Light,Helvetica" font-size="31.7" fill="#000000" transform="matrix(1.00, 0.00, -0.00, -1.00, 463.7, 433.3)">m</text><text xml:space="preserve" font-family="Helvetica-Light,Helvetica" font-size="31.7" fill="#000000" transform="matrix(1.00, 0.00, -0.00, -1.00, 490.1, 433.3)">/</text><text xml:space="preserve" font-family="Helvetica-Light,Helvetica" font-size="31.7" fill="#000000" transform="matrix(1.00, 0.00, -0.00, -1.00, 498.9, 433.3)">b</text><text xml:space="preserve" font-family="Helvetica-Light,Helvetica" font-size="31.7" fill="#000000" transform="matrix(1.00, 0.00, -0.00, -1.00, 518.2, 433.3)">l</text><text xml:space="preserve" font-family="Helvetica-Light,Helvetica" font-size="31.7" fill="#000000" transform="matrix(1.00, 0.00, -0.00, -1.00, 525.3, 433.3)">o</text><text xml:space="preserve" font-family="Helvetica-Light,Helvetica" font-size="31.7" fill="#000000" transform="matrix(1.00, 0.00, -0.00, -1.00, 542.9, 433.3)">g</text><text xml:space="preserve" font-family="Helvetica-Light,Helvetica" font-size="31.7" fill="#000000" transform="matrix(1.00, 0.00, -0.00, -1.00, 562.2, 433.3)">/</text><text xml:space="preserve" font-family="Helvetica-Light,Helvetica" font-size="31.7" fill="#000000" transform="matrix(1.00, 0.00, -0.00, -1.00, 571.0, 433.3)">2</text><text xml:space="preserve" font-family="Helvetica-Light,Helvetica" font-size="31.7" fill="#000000" transform="matrix(1.00, 0.00, -0.00, -1.00, 588.6, 433.3)">0</text><text xml:space="preserve" font-family="Helvetica-Light,Helvetica" font-size="31.7" fill="#000000" transform="matrix(1.00, 0.00, -0.00, -1.00, 606.3, 433.3)">1</text><text xml:space="preserve" font-family="Helvetica-Light,Helvetica" font-size="31.7" fill="#000000" transform="matrix(1.00, 0.00, -0.00, -1.00, 623.9, 433.3)">4</text><text xml:space="preserve" font-family="Helvetica-Light,Helvetica" font-size="31.7" fill="#000000" transform="matrix(1.00, 0.00, -0.00, -1.00, 641.5, 433.3)">/</text><text xml:space="preserve" font-family="Helvetica-Light,Helvetica" font-size="31.7" fill="#000000" transform="matrix(1.00, 0.00, -0.00, -1.00, 650.3, 433.3)">0</text><text xml:space="preserve" font-family="Helvetica-Light,Helvetica" font-size="31.7" fill="#000000" transform="matrix(1.00, 0.00, -0.00, -1.00, 667.9, 433.3)">9</text><text xml:space="preserve" font-family="Helvetica-Light,Helvetica" font-size="31.7" fill="#000000" transform="matrix(1.00, 0.00, -0.00, -1.00, 685.5, 433.3)">/</text><text xml:space="preserve" font-family="Helvetica-Light,Helvetica" font-size="31.7" fill="#000000" transform="matrix(1.00, 0.00, -0.00, -1.00, 694.3, 433.3)">1</text><text xml:space="preserve" font-family="Helvetica-Light,Helvetica" font-size="31.7" fill="#000000" transform="matrix(1.00, 0.00, -0.00, -1.00, 711.9, 433.3)">5</text><text xml:space="preserve" font-family="Helvetica-Light,Helvetica" font-size="31.7" fill="#000000" transform="matrix(1.00, 0.00, -0.00, -1.00, 729.6, 433.3)">/</text><text xml:space="preserve" font-family="Helvetica-Light,Helvetica" font-size="31.7" fill="#000000" transform="matrix(1.00, 0.00, -0.00, -1.00, 738.4, 433.3)">a</text><text xml:space="preserve" font-family="Helvetica-Light,Helvetica" font-size="31.7" fill="#000000" transform="matrix(1.00, 0.00, -0.00, -1.00, 756.0, 433.3)">-</text><text xml:space="preserve" font-family="Helvetica-Light,Helvetica" font-size="31.7" fill="#000000" transform="matrix(1.00, 0.00, -0.00, -1.00, 766.5, 433.3)">l</text><text xml:space="preserve" font-family="Helvetica-Light,Helvetica" font-size="31.7" fill="#000000" transform="matrix(1.00, 0.00, -0.00, -1.00, 773.6, 433.3)">i</text><text xml:space="preserve" font-family="Helvetica-Light,Helvetica" font-size="31.7" fill="#000000" transform="matrix(1.00, 0.00, -0.00, -1.00, 780.6, 433.3)">g</text><text xml:space="preserve" font-family="Helvetica-Light,Helvetica" font-size="31.7" fill="#000000" transform="matrix(1.00, 0.00, -0.00, -1.00, 799.9, 433.3)">h</text><text xml:space="preserve" font-family="Helvetica-Light,Helvetica" font-size="31.7" fill="#000000" transform="matrix(1.00, 0.00, -0.00, -1.00, 817.6, 433.3)">t</text><text xml:space="preserve" font-family="Helvetica-Light,Helvetica" font-size="31.7" fill="#000000" transform="matrix(1.00, 0.00, -0.00, -1.00, 826.4, 433.3)">w</text><text xml:space="preserve" font-family="Helvetica-Light,Helvetica" font-size="31.7" fill="#000000" transform="matrix(1.00, 0.00, -0.00, -1.00, 849.2, 433.3)">e</text><text xml:space="preserve" font-family="Helvetica-Light,Helvetica" font-size="31.7" fill="#000000" transform="matrix(1.00, 0.00, -0.00, -1.00, 866.9, 433.3)">i</text><text xml:space="preserve" font-family="Helvetica-Light,Helvetica" font-size="31.7" fill="#000000" transform="matrix(1.00, 0.00, -0.00, -1.00, 873.9, 433.3)">g</text><text xml:space="preserve" font-family="Helvetica-Light,Helvetica" font-size="31.7" fill="#000000" transform="matrix(1.00, 0.00, -0.00, -1.00, 893.2, 433.3)">h</text><text xml:space="preserve" font-family="Helvetica-Light,Helvetica" font-size="31.7" fill="#000000" transform="matrix(1.00, 0.00, -0.00, -1.00, 910.9, 433.3)">t</text><text xml:space="preserve" font-family="Helvetica-Light,Helvetica" font-size="31.7" fill="#000000" transform="matrix(1.00, 0.00, -0.00, -1.00, 919.7, 433.3)">-</text><g><clipPath id="clip0x6080010bdb80"><path d="M 108.8 429.1 L 930.2 429.1 L 930.2 432.7 L 108.8 432.7 Z M 108.8 429.1 "></path></clipPath><g clip-path="url(#clip0x6080010bdb80)"><path d="M 34.8 132.1 L 855.2 132.1 " fill="none" stroke="#000000" stroke-width="1.58" transform="matrix(1.00, 0.00, 0.00, -1.00, 75.0, 563.0)"></path></g></g><text xml:space="preserve" font-family="Helvetica-Light,Helvetica" font-size="31.7" fill="#000000" transform="matrix(1.00, 0.00, -0.00, -1.00, 109.8, 396.3)">w</text><text xml:space="preserve" font-family="Helvetica-Light,Helvetica" font-size="31.7" fill="#000000" transform="matrix(1.00, 0.00, -0.00, -1.00, 132.7, 396.3)">a</text><text xml:space="preserve" font-family="Helvetica-Light,Helvetica" font-size="31.7" fill="#000000" transform="matrix(1.00, 0.00, -0.00, -1.00, 150.3, 396.3)">y</text><text xml:space="preserve" font-family="Helvetica-Light,Helvetica" font-size="31.7" fill="#000000" transform="matrix(1.00, 0.00, -0.00, -1.00, 166.1, 396.3)">-</text><text xml:space="preserve" font-family="Helvetica-Light,Helvetica" font-size="31.7" fill="#000000" transform="matrix(1.00, 0.00, -0.00, -1.00, 176.7, 396.3)">t</text><text xml:space="preserve" font-family="Helvetica-Light,Helvetica" font-size="31.7" fill="#000000" transform="matrix(1.00, 0.00, -0.00, -1.00, 185.5, 396.3)">o</text><text xml:space="preserve" font-family="Helvetica-Light,Helvetica" font-size="31.7" fill="#000000" transform="matrix(1.00, 0.00, -0.00, -1.00, 203.1, 396.3)">-</text><text xml:space="preserve" font-family="Helvetica-Light,Helvetica" font-size="31.7" fill="#000000" transform="matrix(1.00, 0.00, -0.00, -1.00, 213.6, 396.3)">h</text><text xml:space="preserve" font-family="Helvetica-Light,Helvetica" font-size="31.7" fill="#000000" transform="matrix(1.00, 0.00, -0.00, -1.00, 231.3, 396.3)">a</text><text xml:space="preserve" font-family="Helvetica-Light,Helvetica" font-size="31.7" fill="#000000" transform="matrix(1.00, 0.00, -0.00, -1.00, 248.9, 396.3)">n</text><text xml:space="preserve" font-family="Helvetica-Light,Helvetica" font-size="31.7" fill="#000000" transform="matrix(1.00, 0.00, -0.00, -1.00, 266.5, 396.3)">d</text><text xml:space="preserve" font-family="Helvetica-Light,Helvetica" font-size="31.7" fill="#000000" transform="matrix(1.00, 0.00, -0.00, -1.00, 285.8, 396.3)">l</text><text xml:space="preserve" font-family="Helvetica-Light,Helvetica" font-size="31.7" fill="#000000" transform="matrix(1.00, 0.00, -0.00, -1.00, 292.9, 396.3)">e</text><text xml:space="preserve" font-family="Helvetica-Light,Helvetica" font-size="31.7" fill="#000000" transform="matrix(1.00, 0.00, -0.00, -1.00, 310.5, 396.3)">-</text><text xml:space="preserve" font-family="Helvetica-Light,Helvetica" font-size="31.7" fill="#000000" transform="matrix(1.00, 0.00, -0.00, -1.00, 321.0, 396.3)">d</text><text xml:space="preserve" font-family="Helvetica-Light,Helvetica" font-size="31.7" fill="#000000" transform="matrix(1.00, 0.00, -0.00, -1.00, 340.4, 396.3)">i</text><text xml:space="preserve" font-family="Helvetica-Light,Helvetica" font-size="31.7" fill="#000000" transform="matrix(1.00, 0.00, -0.00, -1.00, 347.4, 396.3)">f</text><text xml:space="preserve" font-family="Helvetica-Light,Helvetica" font-size="31.7" fill="#000000" transform="matrix(1.00, 0.00, -0.00, -1.00, 355.7, 396.3)">f</text><text xml:space="preserve" font-family="Helvetica-Light,Helvetica" font-size="31.7" fill="#000000" transform="matrix(1.00, 0.00, -0.00, -1.00, 364.5, 396.3)">e</text><text xml:space="preserve" font-family="Helvetica-Light,Helvetica" font-size="31.7" fill="#000000" transform="matrix(1.00, 0.00, -0.00, -1.00, 382.1, 396.3)">r</text><text xml:space="preserve" font-family="Helvetica-Light,Helvetica" font-size="31.7" fill="#000000" transform="matrix(1.00, 0.00, -0.00, -1.00, 392.1, 396.3)">e</text><text xml:space="preserve" font-family="Helvetica-Light,Helvetica" font-size="31.7" fill="#000000" transform="matrix(1.00, 0.00, -0.00, -1.00, 409.7, 396.3)">n</text><text xml:space="preserve" font-family="Helvetica-Light,Helvetica" font-size="31.7" fill="#000000" transform="matrix(1.00, 0.00, -0.00, -1.00, 427.3, 396.3)">t</text><text xml:space="preserve" font-family="Helvetica-Light,Helvetica" font-size="31.7" fill="#000000" transform="matrix(1.00, 0.00, -0.00, -1.00, 436.1, 396.3)">-</text><text xml:space="preserve" font-family="Helvetica-Light,Helvetica" font-size="31.7" fill="#000000" transform="matrix(1.00, 0.00, -0.00, -1.00, 446.7, 396.3)">v</text><text xml:space="preserve" font-family="Helvetica-Light,Helvetica" font-size="31.7" fill="#000000" transform="matrix(1.00, 0.00, -0.00, -1.00, 462.5, 396.3)">a</text><text xml:space="preserve" font-family="Helvetica-Light,Helvetica" font-size="31.7" fill="#000000" transform="matrix(1.00, 0.00, -0.00, -1.00, 480.1, 396.3)">l</text><text xml:space="preserve" font-family="Helvetica-Light,Helvetica" font-size="31.7" fill="#000000" transform="matrix(1.00, 0.00, -0.00, -1.00, 487.1, 396.3)">i</text><text xml:space="preserve" font-family="Helvetica-Light,Helvetica" font-size="31.7" fill="#000000" transform="matrix(1.00, 0.00, -0.00, -1.00, 494.2, 396.3)">d</text><text xml:space="preserve" font-family="Helvetica-Light,Helvetica" font-size="31.7" fill="#000000" transform="matrix(1.00, 0.00, -0.00, -1.00, 513.5, 396.3)">a</text><text xml:space="preserve" font-family="Helvetica-Light,Helvetica" font-size="31.7" fill="#000000" transform="matrix(1.00, 0.00, -0.00, -1.00, 531.1, 396.3)">t</text><text xml:space="preserve" font-family="Helvetica-Light,Helvetica" font-size="31.7" fill="#000000" transform="matrix(1.00, 0.00, -0.00, -1.00, 540.0, 396.3)">i</text><text xml:space="preserve" font-family="Helvetica-Light,Helvetica" font-size="31.7" fill="#000000" transform="matrix(1.00, 0.00, -0.00, -1.00, 547.0, 396.3)">o</text><text xml:space="preserve" font-family="Helvetica-Light,Helvetica" font-size="31.7" fill="#000000" transform="matrix(1.00, 0.00, -0.00, -1.00, 564.6, 396.3)">n</text><text xml:space="preserve" font-family="Helvetica-Light,Helvetica" font-size="31.7" fill="#000000" transform="matrix(1.00, 0.00, -0.00, -1.00, 582.2, 396.3)">-</text><text xml:space="preserve" font-family="Helvetica-Light,Helvetica" font-size="31.7" fill="#000000" transform="matrix(1.00, 0.00, -0.00, -1.00, 592.8, 396.3)">s</text><text xml:space="preserve" font-family="Helvetica-Light,Helvetica" font-size="31.7" fill="#000000" transform="matrix(1.00, 0.00, -0.00, -1.00, 608.6, 396.3)">i</text><text xml:space="preserve" font-family="Helvetica-Light,Helvetica" font-size="31.7" fill="#000000" transform="matrix(1.00, 0.00, -0.00, -1.00, 615.6, 396.3)">t</text><text xml:space="preserve" font-family="Helvetica-Light,Helvetica" font-size="31.7" fill="#000000" transform="matrix(1.00, 0.00, -0.00, -1.00, 624.4, 396.3)">u</text><text xml:space="preserve" font-family="Helvetica-Light,Helvetica" font-size="31.7" fill="#000000" transform="matrix(1.00, 0.00, -0.00, -1.00, 642.1, 396.3)">a</text><text xml:space="preserve" font-family="Helvetica-Light,Helvetica" font-size="31.7" fill="#000000" transform="matrix(1.00, 0.00, -0.00, -1.00, 659.7, 396.3)">t</text><text xml:space="preserve" font-family="Helvetica-Light,Helvetica" font-size="31.7" fill="#000000" transform="matrix(1.00, 0.00, -0.00, -1.00, 668.5, 396.3)">i</text><text xml:space="preserve" font-family="Helvetica-Light,Helvetica" font-size="31.7" fill="#000000" transform="matrix(1.00, 0.00, -0.00, -1.00, 675.5, 396.3)">o</text><text xml:space="preserve" font-family="Helvetica-Light,Helvetica" font-size="31.7" fill="#000000" transform="matrix(1.00, 0.00, -0.00, -1.00, 693.1, 396.3)">n</text><text xml:space="preserve" font-family="Helvetica-Light,Helvetica" font-size="31.7" fill="#000000" transform="matrix(1.00, 0.00, -0.00, -1.00, 710.7, 396.3)">s</text><text xml:space="preserve" font-family="Helvetica-Light,Helvetica" font-size="31.7" fill="#000000" transform="matrix(1.00, 0.00, -0.00, -1.00, 726.6, 396.3)">/</text><text xml:space="preserve" font-family="LucidaGrande,Lucida Grande" font-size="31.7" fill="#000000" transform="matrix(1.00, 0.00, -0.00, -1.00, 735.4, 396.3)"> </text><g><clipPath id="clip0x6080010bea20"><path d="M 108.8 392.1 L 735.4 392.1 L 735.4 395.7 L 108.8 395.7 Z M 108.8 392.1 "></path></clipPath><g clip-path="url(#clip0x6080010bea20)"><path d="M 34.8 169.1 L 660.4 169.1 " fill="none" stroke="#000000" stroke-width="1.58" transform="matrix(1.00, 0.00, 0.00, -1.00, 75.0, 563.0)"></path></g></g><text xml:space="preserve" font-family="LucidaGrande,Lucida Grande" font-size="31.7" fill="#000000" transform="matrix(1.00, 0.00, -0.00, -1.00, 109.8, 359.3)"> </text><text xml:space="preserve" font-family="LucidaGrande,Lucida Grande" font-size="31.7" fill="#000000" transform="matrix(1.00, 0.00, -0.00, -1.00, 109.8, 322.3)"> </text><text xml:space="preserve" font-family="LucidaGrande,Lucida Grande" font-size="31.7" fill="#000000" transform="matrix(1.00, 0.00, -0.00, -1.00, 109.8, 285.3)"> </text><image xlink:href="../../FAC71287-58CB-4F23-8FD8-CA7888A35462/assets/C190A7E1EA42FAF54FC58BFBACF9A99D.jpeg" width="343.00" height="343.00" transform="matrix(0.72, 0.00, -0.00, -0.72, 398.0, 345.0)"></image></g></svg>